<?xml version="1.0" standalone="no"?>
<!DOCTYPE svg PUBLIC "-//W3C//DTD SVG 20010904//EN"
 "http://www.w3.org/TR/2001/REC-SVG-20010904/DTD/svg10.dtd">
<svg version="1.0" xmlns="http://www.w3.org/2000/svg"
 width="1254.000000pt" height="1254.000000pt" viewBox="0 0 1254.000000 1254.000000"
 preserveAspectRatio="xMidYMid meet">

<g transform="translate(0.000000,1254.000000) scale(0.100000,-0.100000)"
fill="#000000" stroke="none">
<path d="M6814 11196 c-117 -53 -158 -244 -101 -471 45 -179 164 -446 335
-752 44 -79 78 -143 75 -143 -3 0 -39 31 -81 69 -350 314 -695 521 -870 521
-114 0 -154 -62 -132 -207 45 -294 295 -807 575 -1178 220 -291 446 -499 807
-744 58 -39 126 -89 149 -110 l43 -38 -12 -64 c-7 -35 -28 -152 -47 -259 -40
-227 -55 -287 -88 -361 -79 -176 -224 -279 -433 -309 -92 -13 -179 -7 -400 26
-716 106 -1140 107 -1646 3 -905 -184 -1685 -674 -2127 -1335 -241 -361 -384
-781 -406 -1193 -3 -58 -8 -120 -11 -137 l-4 -31 -62 24 c-52 21 -73 24 -147
21 -108 -5 -180 -38 -251 -114 -61 -68 -93 -123 -124 -217 -72 -211 -46 -431
75 -652 108 -196 277 -345 480 -421 64 -24 88 -28 184 -28 116 0 179 17 246
65 37 26 42 23 193 -105 151 -128 156 -133 156 -152 0 -10 -20 -54 -45 -99
-85 -156 -95 -270 -35 -391 88 -179 299 -280 637 -303 81 -6 326 -16 543 -21
217 -6 494 -17 615 -25 684 -44 1025 -42 1210 5 142 36 191 91 183 204 -7 118
-94 251 -215 332 -172 114 -374 154 -793 155 -129 0 -253 3 -274 7 l-40 7 60
19 c97 30 274 101 361 145 121 61 232 135 393 265 181 147 296 224 477 320
234 125 669 302 802 326 93 17 116 2 205 -134 40 -61 190 -289 334 -506 143
-217 315 -492 382 -610 187 -328 242 -395 380 -465 124 -62 221 -79 470 -79
283 0 401 24 467 96 74 80 36 261 -77 360 -25 22 -103 68 -175 103 -184 88
-238 150 -299 341 -90 281 -151 699 -144 987 3 149 4 154 36 217 21 43 69 106
143 185 294 320 463 603 559 936 63 216 82 372 109 869 10 184 22 230 77 296
54 67 148 108 323 139 164 29 251 62 343 128 199 142 363 427 361 627 -1 155
-50 237 -412 695 -335 424 -547 590 -900 705 -131 42 -244 64 -443 84 -112 12
-143 18 -169 37 -38 27 -66 86 -159 334 -122 324 -173 448 -261 627 -175 354
-316 567 -563 847 -313 355 -695 594 -842 527z"/>
</g>
</svg>
